<svg id="Layer_1" data-name="Layer 1" xmlns="http://www.w3.org/2000/svg" xmlns:xlink="http://www.w3.org/1999/xlink" viewBox="0 0 512 512"><defs><style>.cls-1{fill:url(#linear-gradient);}</style><linearGradient id="linear-gradient" x1="-29.36" y1="421" x2="541.36" y2="91.5" gradientUnits="userSpaceOnUse"><stop offset="0" stop-color="#5f4c2f"/><stop offset="0.19" stop-color="#bfa065"/><stop offset="0.32" stop-color="#ebce6f"/><stop offset="0.52" stop-color="#fffcac"/><stop offset="0.73" stop-color="#ebce6f"/><stop offset="0.87" stop-color="#bfa065"/></linearGradient></defs><path class="cls-1" d="M458.17.75H53.83A53.33,53.33,0,0,0,.5,54.08V458.42a53.33,53.33,0,0,0,53.33,53.33H458.17a53.33,53.33,0,0,0,53.33-53.33V54.08A53.33,53.33,0,0,0,458.17.75Zm-315.86,175v50.13l-37.15,15.76L36.49,211.28ZM245.87,471.31,118.67,422.9V334l52.9,19.14,74.3-27ZM167.07,334,36.49,285.57l69.79-28.14L245.87,307Zm28.66-107.28,11.51-67.11-48.76-47.53,67.38-9.79L256,41.19l30.14,61.07,67.38,9.79-48.76,47.53,11.51,67.11L256,195ZM393.33,422.9l-127.2,48.41V326.09l74.3,27L393.33,334ZM344.93,334l-78.8-27,139.59-49.53,69.79,28.14Zm61.91-92.3-37.15-15.76V175.78l105.82,35.5Z"/></svg>