<svg id="Layer_1" data-name="Layer 1" xmlns="http://www.w3.org/2000/svg" xmlns:xlink="http://www.w3.org/1999/xlink" viewBox="0 0 512 512"><defs><style>.cls-1{fill:url(#linear-gradient);}</style><linearGradient id="linear-gradient" x1="-28.61" y1="421" x2="542.11" y2="91.5" gradientUnits="userSpaceOnUse"><stop offset="0" stop-color="#5f4c2f"/><stop offset="0.19" stop-color="#bfa065"/><stop offset="0.32" stop-color="#ebce6f"/><stop offset="0.52" stop-color="#fffcac"/><stop offset="0.73" stop-color="#ebce6f"/><stop offset="0.87" stop-color="#bfa065"/></linearGradient></defs><path class="cls-1" d="M458.92.75H54.58A53.33,53.33,0,0,0,1.25,54.08V458.42a53.33,53.33,0,0,0,53.33,53.33H458.92a53.33,53.33,0,0,0,53.33-53.33V54.08A53.33,53.33,0,0,0,458.92.75Zm-329.24,58C140.1,53.43,150.52,48.07,161,42.86a12.17,12.17,0,0,1,5.31-1.31q90.38.31,180.75.81a10.38,10.38,0,0,1,4.58,1q29.28,14.91,58.5,30a20.57,20.57,0,0,1,1.94,1.41c-1.57.76-2.67,1.37-3.81,1.85q-31.5,13.18-63,26.29a17.36,17.36,0,0,1-6.54,1.35q-83.08.24-166.16.27a13.66,13.66,0,0,1-5.41-.9q-32.3-14.1-64.52-28.42c-.47-.21-.91-.53-2.39-1.39C110.61,68.5,120.14,63.61,129.68,58.75ZM356.29,205.13H154.21c3.54-16.31,6.91-31.9,10.3-47.49,2.05-9.43,4.22-18.82,6.15-28.29.63-3.09,1.59-4.45,4.48-4.42q81.3.82,162.59,1.31c2.76,0,3.82,1.09,4.44,4.39,4.44,23.37,9.08,46.69,13.63,70C356.06,202,356.11,203.42,356.29,205.13ZM59.47,116.77c6-9.15,12-18.21,17.9-27.44C79,86.86,80.2,86,82.9,87.22c22.55,10.57,45.18,20.92,67.81,31.27,2,.91,3,1.85,2.35,4.83-5.29,25.25-10.46,50.53-15.68,75.81a16,16,0,0,1-.7,1.86l-96-55.25C47.1,135.8,53.27,126.27,59.47,116.77ZM226.73,442.69,45.09,173.05a25.58,25.58,0,0,1,3.32,1.24c28.11,16.31,56.24,32.59,84.28,49.11,1.89,1.12,3.5,3.78,4.51,6.17q42.32,99.56,84.46,199.22,2.84,6.72,5.7,13.42ZM156.6,226.46H355.07L255.76,471ZM285.49,443.11l-1.1-1.08q11.75-27.67,23.49-55.35Q341,308.88,374.15,231.14a14.39,14.39,0,0,1,5.33-6.43c27.56-16.26,55.21-32.28,82.84-48.35a4.47,4.47,0,0,1,3.34-.64Zm89.18-242.74a18.39,18.39,0,0,1-1.11-3c-4.92-24.37-9.77-48.76-14.75-73.11-.6-2.93-.11-4.18,2.25-5.29,22.52-10.62,45-21.44,67.51-32a4.14,4.14,0,0,1,4.27.93c13.27,18.6,26.38,37.37,39.51,56.11a7.94,7.94,0,0,1,.51,1.38Z"/></svg>